<?xml version="1.0" standalone="no"?>
<!DOCTYPE svg PUBLIC "-//W3C//DTD SVG 20010904//EN"
 "http://www.w3.org/TR/2001/REC-SVG-20010904/DTD/svg10.dtd">
<svg version="1.0" xmlns="http://www.w3.org/2000/svg"
 width="600.000000pt" height="600.000000pt" viewBox="0 0 600.000000 600.000000"
 preserveAspectRatio="xMidYMid meet">
<metadata>
Created by potrace 1.11, written by Peter Selinger 2001-2013
</metadata>
<g transform="translate(0.000000,600.000000) scale(0.100000,-0.100000)"
fill="#000000" stroke="none">
<path d="M20 3000 l0 -3000 2990 0 2990 0 0 3000 0 3000 -2990 0 -2990 0 0
-3000z m3440 1577 c190 -47 310 -98 450 -191 500 -333 641 -987 330 -1530
-127 -222 -350 -412 -595 -509 -92 -37 -265 -77 -329 -77 l-36 0 0 -145 0
-144 138 -3 137 -3 3 -287 2 -288 -900 0 -900 0 0 290 0 290 130 0 130 0 0
1020 0 1020 -130 0 -130 0 0 290 0 291 818 -4 c711 -3 825 -6 882 -20z"/>
<path d="M1910 4305 l0 -135 55 0 55 0 0 135 0 135 -55 0 -55 0 0 -135z"/>
<path d="M2170 4305 l0 -135 418 0 c229 0 447 -3 485 -7 l67 -6 0 142 0 141
-485 0 -485 0 0 -135z"/>
<path d="M3280 3990 l0 -450 485 0 485 0 0 34 c0 50 -44 213 -77 287 -112 247
-342 443 -620 529 -58 18 -225 50 -260 50 -10 0 -13 -97 -13 -450z"/>
<path d="M2160 3565 l0 -455 490 0 490 0 0 449 0 448 -61 7 c-34 3 -255 6
-490 6 l-429 0 0 -455z"/>
<path d="M3280 2948 l0 -432 348 344 c191 189 387 383 437 432 l90 88 -438 0
-437 0 0 -432z"/>
<path d="M3822 2858 c-226 -232 -410 -424 -408 -425 7 -8 161 43 233 77 116
54 185 102 285 198 120 116 206 243 257 384 25 66 54 179 48 185 -3 2 -189
-186 -415 -419z"/>
<path d="M2160 2936 c0 -89 58 -278 121 -395 161 -301 481 -525 794 -557 l65
-7 0 492 0 491 -490 0 -490 0 0 -24z"/>
<path d="M2156 2427 c-3 -12 -6 -118 -6 -234 l0 -213 243 0 242 0 -75 48
c-148 95 -281 229 -363 365 -31 50 -35 54 -41 34z"/>
<path d="M1890 1695 l0 -145 65 0 65 0 0 145 0 145 -65 0 -65 0 0 -145z"/>
<path d="M2150 1695 l0 -145 495 0 495 0 0 145 0 145 -495 0 -495 0 0 -145z"/>
<path d="M3280 1695 l0 -145 65 0 65 0 0 145 0 145 -65 0 -65 0 0 -145z"/>
</g>
</svg>
