<?xml version="1.0" encoding="UTF-8"?>
<svg width="411px" height="123px" viewBox="0 0 411 123" version="1.1" xmlns="http://www.w3.org/2000/svg" xmlns:xlink="http://www.w3.org/1999/xlink">
    <!-- Generator: Sketch 46.2 (44496) - http://www.bohemiancoding.com/sketch -->
    <title>product-zero-state</title>
    <desc>Created with Sketch.</desc>
    <defs></defs>
    <g id="Page-1" stroke="none" stroke-width="1" fill="none" fill-rule="evenodd">
        <g id="product-zero-state">
            <text id="You-have-no-products" font-family="SFProText-Bold, SF Pro Text" font-size="16" font-weight="bold" fill="#000000">
                <tspan x="101.011719" y="15">You have no products yet!</tspan>
            </text>
            <text id="Add-processes-to-you" font-family="SFProText-Regular, SF Pro Text" font-size="14" font-weight="normal" line-spacing="22" fill="#000000">
                <tspan x="59.8466797" y="44">Add processes to your factory by clicking the </tspan>
                <tspan x="74.0175781" y="66" font-family="SFProText-Bold, SF Pro Text" font-weight="bold">Create Products</tspan>
                <tspan x="188.628906" y="66"> button in the top-right. </tspan>
            </text>
            <text id="View-Help-Center" font-family="SFProText-Regular, SF Pro Text" font-size="14" font-weight="normal" line-spacing="19" fill="#0079F3">
                <tspan x="163.214844" y="102">View Help Center</tspan>
            </text>
            <g id="ic_library_books_black_24px" transform="translate(133.000000, 87.000000)">
                <polygon id="Shape" points="0 0 24 0 24 24 0 24"></polygon>
                <path d="M4,6 L2,6 L2,20 C2,21.1 2.9,22 4,22 L18,22 L18,20 L4,20 L4,6 Z M20,2 L8,2 C6.9,2 6,2.9 6,4 L6,16 C6,17.1 6.9,18 8,18 L20,18 C21.1,18 22,17.1 22,16 L22,4 C22,2.9 21.1,2 20,2 Z M19,11 L9,11 L9,9 L19,9 L19,11 Z M15,15 L9,15 L9,13 L15,13 L15,15 Z M19,7 L9,7 L9,5 L19,5 L19,7 Z" id="Shape" fill="#0079F3" fill-rule="nonzero"></path>
            </g>
        </g>
    </g>
</svg>